<?xml version="1.0" encoding="UTF-8" standalone="no"?>
<svg
   height="16px"
   viewBox="0 0 16 16"
   width="16px"
   version="1.1"
   id="svg1"
   sodipodi:docname="reset.svg"
   inkscape:version="1.4 (e7c3feb100, 2024-10-09)"
   xmlns:inkscape="http://www.inkscape.org/namespaces/inkscape"
   xmlns:sodipodi="http://sodipodi.sourceforge.net/DTD/sodipodi-0.dtd"
   xmlns="http://www.w3.org/2000/svg"
   xmlns:svg="http://www.w3.org/2000/svg">
  <defs
     id="defs1" />
  <sodipodi:namedview
     id="namedview1"
     pagecolor="#505050"
     bordercolor="#eeeeee"
     borderopacity="1"
     inkscape:showpageshadow="0"
     inkscape:pageopacity="0"
     inkscape:pagecheckerboard="0"
     inkscape:deskcolor="#505050"
     inkscape:zoom="49.375"
     inkscape:cx="7.9898734"
     inkscape:cy="8"
     inkscape:window-width="1920"
     inkscape:window-height="1043"
     inkscape:window-x="0"
     inkscape:window-y="0"
     inkscape:window-maximized="1"
     inkscape:current-layer="svg1" />
  <path
     d="m 8.5937502,1.000005 c 0.613281,0.00781 1.234375,0.089844 1.8476558,0.253906 C 13.714844,2.132817 16,5.10938 16,8.5000049 16,11.89063 13.714844,14.867193 10.441406,15.742193 7.1679692,16.621099 3.6992192,15.183599 2.0039062,12.250005 c -0.277344,-0.480469 -0.109375,-1.089844 0.367188,-1.367188 0.476562,-0.273437 1.089844,-0.109374 1.367187,0.367188 1.246094,2.160156 3.777344,3.207031 6.1875,2.5625 C 12.332031,13.167974 14,10.992193 14,8.5000049 14,6.003911 12.332031,3.832036 9.9257812,3.187505 c -2.410156,-0.644531 -4.941406,0.402344 -6.1875,2.5625 -0.05859,0.08594 -0.125,0.164062 -0.203125,0.226562 l 0.01953,0.01563 0.0078,0.0078 h 1.437514 c 0.550781,0 1,0.449219 1,0.9999999 0,0 0,1 -1,1 H 2.3181969e-7 V 2.999997 c 0,0 -0.00390000182,-1 0.99999996818031,-1 0.550781,0 1,0.449219 1,1 v 1.6875 l 0.01563,0.01172 0.01172,0.01172 c 1.277344,-2.179688 3.53125,-3.519532 5.953125,-3.691407 0.203125,-0.01563 0.40625,-0.01953 0.613281,-0.01953 z m 0,0"
     fill="#222222"
     id="path1"
     style="fill:#ffffff" />
</svg>
